<mxfile host="app.diagrams.net" modified="2022-05-19T05:56:54.655Z" agent="5.0 (Macintosh; Intel Mac OS X 10_15_7) AppleWebKit/605.1.15 (KHTML, like Gecko) Version/15.4 Safari/605.1.15" etag="in3zHBaJQ51-uyoMXWJ5" version="18.0.7" type="github">
  <diagram id="l0R2FTp7u14YdD1Jmb8E" name="Page-1">
    <mxGraphModel dx="1083" dy="723" grid="1" gridSize="10" guides="1" tooltips="1" connect="1" arrows="1" fold="1" page="1" pageScale="1" pageWidth="827" pageHeight="1169" math="0" shadow="0">
      <root>
        <mxCell id="0" />
        <mxCell id="1" parent="0" />
        <mxCell id="J1_bKxiU-66GvQUoC37A-1" value="User" style="shape=umlActor;html=1;verticalLabelPosition=bottom;verticalAlign=top;align=center;" parent="1" vertex="1">
          <mxGeometry x="130" y="215" width="110" height="200" as="geometry" />
        </mxCell>
        <mxCell id="J1_bKxiU-66GvQUoC37A-7" value="" style="endArrow=none;html=1;rounded=0;entryX=0;entryY=0.5;entryDx=0;entryDy=0;" parent="1" edge="1" target="J1_bKxiU-66GvQUoC37A-9">
          <mxGeometry width="50" height="50" relative="1" as="geometry">
            <mxPoint x="240" y="315" as="sourcePoint" />
            <mxPoint x="400" y="225" as="targetPoint" />
          </mxGeometry>
        </mxCell>
        <mxCell id="J1_bKxiU-66GvQUoC37A-8" value="" style="endArrow=none;html=1;rounded=0;entryX=0;entryY=0.5;entryDx=0;entryDy=0;" parent="1" target="J1_bKxiU-66GvQUoC37A-11" edge="1">
          <mxGeometry width="50" height="50" relative="1" as="geometry">
            <mxPoint x="240" y="315" as="sourcePoint" />
            <mxPoint x="330" y="305" as="targetPoint" />
          </mxGeometry>
        </mxCell>
        <mxCell id="J1_bKxiU-66GvQUoC37A-9" value="&lt;p&gt;&lt;font style=&quot;font-size: 22px;&quot;&gt;login&lt;/font&gt;&lt;/p&gt;" style="ellipse;whiteSpace=wrap;html=1;fontFamily=Helvetica;" parent="1" vertex="1">
          <mxGeometry x="400" y="135" width="120" height="80" as="geometry" />
        </mxCell>
        <mxCell id="J1_bKxiU-66GvQUoC37A-10" value="&lt;font style=&quot;font-size: 21px;&quot;&gt;register&lt;/font&gt;" style="ellipse;whiteSpace=wrap;html=1;" parent="1" vertex="1">
          <mxGeometry x="400" y="215" width="120" height="80" as="geometry" />
        </mxCell>
        <mxCell id="J1_bKxiU-66GvQUoC37A-11" value="&lt;font style=&quot;font-size: 21px;&quot;&gt;editor&lt;/font&gt;" style="ellipse;whiteSpace=wrap;html=1;" parent="1" vertex="1">
          <mxGeometry x="400" y="295" width="120" height="80" as="geometry" />
        </mxCell>
        <mxCell id="J1_bKxiU-66GvQUoC37A-12" value="" style="endArrow=none;html=1;rounded=0;entryX=0;entryY=0.5;entryDx=0;entryDy=0;" parent="1" target="J1_bKxiU-66GvQUoC37A-10" edge="1">
          <mxGeometry width="50" height="50" relative="1" as="geometry">
            <mxPoint x="240" y="315" as="sourcePoint" />
            <mxPoint x="340" y="375" as="targetPoint" />
          </mxGeometry>
        </mxCell>
        <mxCell id="SfqDeqfomSHRpKHAzfzz-1" value="&lt;span style=&quot;font-size: 21px;&quot;&gt;update&lt;/span&gt;" style="ellipse;whiteSpace=wrap;html=1;" vertex="1" parent="1">
          <mxGeometry x="400" y="375" width="120" height="80" as="geometry" />
        </mxCell>
        <mxCell id="SfqDeqfomSHRpKHAzfzz-2" value="" style="endArrow=none;html=1;rounded=0;fontFamily=Helvetica;fontSize=12;exitX=0;exitY=0.5;exitDx=0;exitDy=0;" edge="1" parent="1" source="SfqDeqfomSHRpKHAzfzz-1">
          <mxGeometry width="50" height="50" relative="1" as="geometry">
            <mxPoint x="390" y="455" as="sourcePoint" />
            <mxPoint x="240" y="315" as="targetPoint" />
          </mxGeometry>
        </mxCell>
      </root>
    </mxGraphModel>
  </diagram>
</mxfile>
